<svg width="100" height="100" viewBox="0 0 100 100" fill="none" xmlns="http://www.w3.org/2000/svg">
<g clip-path="url(#clip0_1_38)">
<path d="M49.2044 1.62758e-05H49.5764C58.5444 1.62758e-05 66.9364 2.55418 74.1244 7.00002L73.9044 6.87085C81.3884 11.4292 87.4484 17.7417 91.7004 25.2958L91.8244 25.5375C95.9844 32.9083 98.4404 41.7708 98.4404 51.2292C98.4404 73.7542 84.5084 92.8958 65.1324 99.8042L64.7844 99.9125C64.5324 99.9958 64.2444 100.042 63.9484 100.042C63.3004 100.042 62.7004 99.8167 62.2164 99.4417L62.2244 99.4458C61.7124 98.9667 61.3924 98.275 61.3924 97.5042C61.3924 97.4833 61.3924 97.4625 61.3924 97.4458V97.45C61.3924 97.3167 61.4031 95.6139 61.4244 92.3417C61.4457 89.0695 61.4564 86.0778 61.4564 83.3667C61.4844 83.0542 61.5004 82.6958 61.5004 82.3292C61.5004 79.0292 60.2084 76.0458 58.1244 73.8917C60.5964 73.6375 62.8284 73.2125 64.9964 72.6208L64.6924 72.6917C66.9844 72.025 68.9844 71.1375 70.8404 70.0167L70.7164 70.0875C72.7484 68.9208 74.4684 67.4375 75.8844 65.6792L75.9084 65.65C77.3964 63.6667 78.5604 61.3333 79.2684 58.7958L79.3044 58.65C80.1404 55.8042 80.6204 52.5333 80.6204 49.1458C80.6204 48.9583 80.6204 48.7667 80.6164 48.5792V48.6083C80.6164 48.5167 80.6204 48.4125 80.6204 48.3083C80.6204 43.1083 78.6924 38.3792 75.5444 34.85L75.5564 34.8625C76.2284 33.0292 76.6164 30.9125 76.6164 28.7C76.6164 25.9958 76.0364 23.4375 75.0004 21.1417L75.0444 21.25C74.5844 21.1583 74.0604 21.1042 73.5204 21.1042C72.1844 21.1042 70.9244 21.4292 69.8044 22.0042L69.8524 21.9833C67.5804 22.8583 65.6364 23.85 63.8044 25.0083L63.9564 24.9167L61.5204 26.5167C57.8324 25.4167 53.5964 24.7833 49.2204 24.7833C44.8444 24.7833 40.6084 25.4167 36.5924 26.6L36.9164 26.5167C36.2337 26.0278 35.3258 25.4264 34.1924 24.7125C32.7004 23.8208 30.9364 22.9583 29.1044 22.2333L28.8404 22.1417C27.6684 21.5 26.2804 21.125 24.8044 21.125C24.3084 21.125 23.8204 21.1667 23.3484 21.25L23.4004 21.2417C22.4084 23.425 21.8284 25.9875 21.8284 28.6917C21.8284 30.9042 22.2164 33.025 22.9284 34.9792L22.8884 34.8583C19.7484 38.375 17.8244 43.1042 17.8244 48.3042C17.8244 48.4083 17.8244 48.5167 17.8284 48.6208V48.6042C17.8244 48.7667 17.8244 48.9542 17.8244 49.1458C17.8244 52.5167 18.3044 55.775 19.2004 58.8417L19.1404 58.6042C19.8964 61.2833 21.0444 63.6125 22.5404 65.6583L22.5044 65.6042C23.9204 67.4167 25.6324 68.9083 27.5724 70.0292L27.6604 70.075C29.3884 71.125 31.3924 72.0125 33.5004 72.6333L33.6844 72.6792C35.5484 73.2 37.7804 73.625 40.0644 73.8625L40.2484 73.8792C38.5244 75.6625 37.3764 78.0458 37.1124 80.7042L37.1084 80.7542C36.2804 81.175 35.3164 81.5167 34.3124 81.7375L34.2284 81.7542C33.2044 81.9667 32.0324 82.0875 30.8284 82.0875C30.7404 82.0875 30.6524 82.0875 30.5644 82.0875H30.5764C29.0004 82.0542 27.5524 81.5208 26.3564 80.6375L26.3804 80.6542C24.8964 79.575 23.6964 78.175 22.8564 76.5458L22.8284 76.4833C22.0364 75.0833 20.9924 73.925 19.7564 73.0375L19.7204 73.0125C18.8204 72.3083 17.7604 71.7583 16.6164 71.4292L16.5524 71.4125L15.2724 71.2125C15.1804 71.2042 15.0724 71.2 14.9644 71.2C14.4044 71.2 13.8724 71.3167 13.3884 71.5208L13.4164 71.5083C13.0751 71.7083 12.9684 71.9639 13.0964 72.275C13.2524 72.6333 13.4444 72.9417 13.6764 73.2125L13.6724 73.2083C13.9164 73.5083 14.1924 73.7708 14.4924 74L14.5044 74.0083L14.9524 74.3417C16.0844 74.9583 17.0164 75.8167 17.7244 76.8542L17.7404 76.8792C18.5044 77.8667 19.1764 78.9833 19.7164 80.1792L19.7564 80.2792L20.3964 81.8125C20.9364 83.4875 21.9164 84.8875 23.1964 85.9L23.2164 85.9167C24.4164 86.8917 25.8644 87.5917 27.4444 87.9083L27.5084 87.9167C28.8284 88.1833 30.3644 88.35 31.9324 88.3833H31.9604C32.1404 88.3917 32.3484 88.3917 32.5604 88.3917C33.6044 88.3917 34.6284 88.3042 35.6284 88.1333L35.5204 88.15L36.9924 87.8833C36.9924 89.575 37.0031 91.5444 37.0244 93.7917C37.0457 96.0389 37.0564 97.2514 37.0564 97.4292V97.4875C37.0564 98.2583 36.7364 98.95 36.2244 99.4292H36.2204C35.7444 99.8 35.1484 100.025 34.4964 100.025C34.1964 100.025 33.9084 99.9792 33.6404 99.8917L33.6604 99.8958C13.9444 92.8583 0.0244141 73.7167 0.0244141 51.1875C0.0244141 41.7375 2.47241 32.8833 6.74841 25.275L6.62041 25.5167C10.9964 17.7208 17.0564 11.4083 24.3084 6.97918L24.5404 6.85002C31.4964 2.54168 39.8804 -0.00415039 48.8324 -0.00415039H49.2244H49.2044V1.62758e-05ZM18.6444 73.6083C18.7724 73.2972 18.6231 73.0306 18.1964 72.8083C17.7697 72.675 17.4924 72.7195 17.3644 72.9417C17.2364 73.2528 17.3857 73.5194 17.8124 73.7417C18.1964 74.0083 18.4737 73.9639 18.6444 73.6083ZM20.6324 75.8792C20.9311 75.657 20.8884 75.3014 20.5044 74.8125C20.0777 74.4125 19.7364 74.3458 19.4804 74.6125C19.1817 74.8347 19.2244 75.1903 19.6084 75.6792C20.0324 76.1153 20.3737 76.1806 20.6324 75.875V75.8792ZM22.5524 78.8792C22.9364 78.5681 22.9364 78.1458 22.5524 77.6125C22.2111 77.0347 21.8484 76.9014 21.4644 77.2125C21.0804 77.4347 21.0804 77.8347 21.4644 78.4125C21.8484 78.9903 22.2111 79.1458 22.5524 78.8792ZM25.2404 81.6833C25.5817 81.3278 25.4964 80.9056 24.9844 80.4167C24.4724 79.8833 24.0457 79.8167 23.7044 80.2167C23.3204 80.5722 23.4057 80.9944 23.9604 81.4833C24.4724 82.0167 24.8991 82.0778 25.2404 81.6667V81.6833ZM28.8924 83.35C29.0204 82.8611 28.7431 82.5056 28.0604 82.2833C27.4204 82.1056 27.0151 82.2611 26.8444 82.75C26.6737 83.2389 26.9511 83.5722 27.6764 83.75C28.3164 84.0194 28.7217 83.8861 28.8924 83.35ZM32.9284 83.6833C32.9284 83.1056 32.5657 82.8611 31.8404 82.95C31.1577 82.95 30.8164 83.1944 30.8164 83.6833C30.8164 84.2611 31.1791 84.5056 31.9044 84.4167C32.5871 84.4194 32.9284 84.1764 32.9284 83.6875V83.6833ZM36.6444 83.0167C36.5591 82.5278 36.1751 82.3278 35.4924 82.4167C34.8097 82.55 34.5111 82.8833 34.5964 83.4167C34.6818 83.95 35.0658 84.1278 35.7484 83.95C36.4311 83.7722 36.7311 83.4611 36.6484 83.0167H36.6444Z" fill="#9290C3"/>
</g>
<defs>
<clipPath id="clip0_1_38">
<rect width="100" height="100" fill="white"/>
</clipPath>
</defs>
</svg>
