<svg width="61" height="95" viewBox="0 0 61 95" fill="none" xmlns="http://www.w3.org/2000/svg">
<path fill-rule="evenodd" clip-rule="evenodd" d="M45.9102 46.4147C45.8249 46.9606 45.6173 47.4802 45.3028 47.9345C44.9882 48.3889 44.575 48.7661 44.0939 49.0381C43.1253 49.6637 42.2777 49.9765 41.4201 50.2893C39.5937 50.9199 37.6716 51.5505 35.6384 52.2821C33.4942 53.0136 31.5721 53.7452 29.8568 54.2749C27.7176 55.0064 25.6845 55.6371 23.7522 56.3686C22.2985 56.9907 20.933 57.8015 19.6909 58.7801C18.5358 59.8267 17.5277 61.0248 16.6942 62.3419C15.8365 63.805 15.2967 65.6919 15.2967 67.8915C15.2967 72.2959 16.3662 75.6458 18.5104 77.7395C20.6495 79.9442 24.6149 80.9885 30.4924 80.9885C36.486 80.9885 40.5523 79.8383 42.7015 77.5327C44.8356 75.2271 45.9051 71.9831 45.9051 67.7957V46.4147H45.9102ZM30.4975 0C40.9912 0 48.6951 1.9928 53.614 6.07931C58.538 10.0649 61 15.1907 61 21.265V73.0274C61 75.1211 60.5762 77.4267 59.8295 79.9392C59.0728 82.4617 57.5794 84.7623 55.2234 86.8509C52.9783 88.9547 49.8756 90.7356 45.9152 92.0978C41.9548 93.46 36.819 94.1915 30.5025 94.1915C24.1962 94.1915 19.0502 93.46 15.0949 92.0978C11.1395 90.7356 8.03176 88.9547 5.7867 86.8509C3.69819 84.9688 2.11606 82.5921 1.18559 79.9392C0.428831 77.4318 0 75.1262 0 73.0325V64.7586C0 60.3542 1.1755 56.2677 3.53155 52.7008C5.8876 49.0381 9.20222 46.5257 13.4855 44.9516C15.6246 44.2201 18.0866 43.4885 20.8664 42.5451C23.6513 41.5966 26.2142 40.6532 28.7872 39.8208C31.3602 38.9782 33.6052 38.1357 35.5274 37.3991C36.6874 36.935 37.8655 36.5176 39.059 36.1479L40.9862 35.2045C41.7429 34.7858 42.4846 34.1551 43.2363 33.3177C43.983 32.4852 44.6237 31.5418 45.1635 30.4924C45.7339 29.3561 46.0277 28.1011 46.0212 26.8297V23.4747C46.0291 22.2451 45.7709 21.0283 45.2644 19.9079C44.8406 18.6466 43.983 17.4963 42.8075 16.452C41.632 15.4026 40.0226 14.5651 38.1004 13.9294C36.1732 13.3089 33.6103 12.9911 30.7144 12.9911C24.7209 12.9911 20.7605 14.1514 18.6214 16.5529C16.8051 18.6516 15.7356 21.27 15.5237 24.2012C15.5237 24.8318 14.9889 25.2506 14.3431 25.2506L1.29154 25.4625C0.981509 25.4638 0.683496 25.3427 0.462387 25.1253C0.241279 24.908 0.114981 24.6121 0.110992 24.3021V21.2751C0.110992 18.3338 0.650815 15.6095 1.82632 12.9911C3.00686 10.3676 4.82814 8.17302 7.28509 6.28111C9.74708 4.3993 12.9608 2.83029 16.8102 1.78091C20.5587 0.519642 25.1598 0 30.5076 0H30.4975Z" fill="#0A3871"/>
</svg>
